<?xml version="1.0" encoding="utf-8"?>
<!-- Generator: Adobe Illustrator 16.0.0, SVG Export Plug-In . SVG Version: 6.00 Build 0)  -->
<!DOCTYPE svg PUBLIC "-//W3C//DTD SVG 1.1//EN" "http://www.w3.org/Graphics/SVG/1.1/DTD/svg11.dtd">
<svg version="1.1" id="Laag_1" xmlns="http://www.w3.org/2000/svg" xmlns:xlink="http://www.w3.org/1999/xlink" x="0px" y="0px"
	 width="305.009px" height="59.528px" viewBox="0 0 305.009 59.528" enable-background="new 0 0 305.009 59.528"
	 xml:space="preserve">
<path fill="#E74011" d="M31.065,58.686h-5.022L0,0.816h4.475c1.126,0,1.798,0.671,2.089,1.333l20.562,46.17
	c0.779,1.724,1.07,3.231,1.489,4.79c0.426-1.559,0.779-3.176,1.487-4.79l20.66-46.17c0.429-0.837,1.092-1.333,2.043-1.333h4.304
	L31.065,58.686z"/>
<path fill="#E74011" d="M71.642,0.899v57.787h-5.723V0.899H71.642z"/>
<path d="M83.664,0.899h46.915v10.656h-29.913l29.666,36.528c1.393,1.579,1.99,3.503,1.99,4.786v5.816H84.498V47.974h30.52
	L85.6,11.826c-1.047-1.289-1.936-3.207-1.936-5.18V0.899z"/>
<path d="M156.585,0.899v57.787h-14.882V0.899H156.585z"/>
<path d="M222.283,26.189c0,4.213-0.715,5.352-3.438,5.352h-38.231c0.898,11.883,7.107,17.222,16.947,17.222
	c9.709,0,13.435-5.062,17.13-5.062c1.192,0,2.044,0.438,2.715,1.301l4.337,5.062c-6.641,7.264-16.772,9.463-25.521,9.463
	c-17.121,0-30.446-10.765-30.446-30.976C165.774,12.781,176.991,0,195.497,0C211.131,0,222.283,9.518,222.283,26.189z
	 M180.897,23.145h28.005c0-7.209-4.181-13.169-13.086-13.169C187.124,9.976,182.302,14.762,180.897,23.145z"/>
<path d="M230.932,58.686V0.899h9.115c1.925,0,3.172,0.852,3.796,2.537l1.008,4.559C249.868,3.152,255.72,0,263.98,0
	c13.564,0,20.873,9.012,20.873,21.905v36.78H269.94v-36.78c0-7.034-3.482-11.084-10.49-11.084c-5.126,0-9.582,2.3-13.618,6.069
	v41.795H230.932z"/>
<path fill="#E74011" d="M298.205,59.527c-3.595,0-6.613-2.823-6.613-6.144c0-3.485,3.019-6.265,6.613-6.265
	c3.705,0,6.804,2.779,6.804,6.265C305.009,56.704,301.91,59.527,298.205,59.527z"/>
</svg>
